<svg xmlns="http://www.w3.org/2000/svg" height="1200" width="1600" version="1.1" xmlns:xlink="http://www.w3.org/1999/xlink" xmlns:svgjs="http://svgjs.com/svgjs"><rect fill="#effaff" width="1600" height="1200"></rect><g><path d="M1287.26 567.93C1256.92 426.82 1118.6 308.32 980.12 261.61 848.05 216.88 687.95 214.66 550.86 233.82 469.95 245.25 396.43 271.81 359.02 349.52 339.85 389.32 331.63 433.07 323.41 476.41 314.2 525.75 304.82 575.74 306.8 625.91 313.54 792.1 459.42 853.28 601.68 881.4 658.01 892.59 715.41 900.81 772.56 906.4 826.1 911.58 879.88 913.97 933.82 913.56 986.37 913.15 1041.3 911.99 1092.12 896.54 1163.83 874.99 1224.43 821.21 1259.55 755.42 1293.67 691.61 1300.25 627.88 1287.26 567.93Z" fill="#deeff7" opacity="1" stroke-width="2" stroke="none"></path></g><g><path d="M1243.02 399.91C1252.54 410.11 1258.35 423.83 1258.35 438.87V542.14H1143.85V438.9C1143.85 407.3 1169.5 381.65 1201.1 381.65 1216.03 381.65 1229.6 387.36 1239.77 396.69" fill="#48466d" opacity="1" stroke-width="2" stroke="none"></path><path d="M1243.02 399.91C1252.54 410.11 1258.35 423.83 1258.35 438.87V542.14H1143.85V438.9C1143.85 407.3 1169.5 381.65 1201.1 381.65 1216.03 381.65 1229.6 387.36 1239.77 396.69" stroke="#333333" stroke-width="2" stroke-linecap="round" stroke-linejoin="round" opacity="1" fill="none"></path><path d="M1139.17 542.14H1262.96" stroke="#333333" stroke-width="2" stroke-linecap="round" stroke-linejoin="round" opacity="1" fill="none"></path><path d="M1201.07 381.65V542.14" stroke="#333333" stroke-width="2" stroke-linecap="round" stroke-linejoin="round" opacity="1" fill="none"></path><path d="M1157.21 461.91H1143.82" stroke="#333333" stroke-width="2" stroke-linecap="round" stroke-linejoin="round" opacity="1" fill="none"></path><path d="M1173.19 461.91H1162.03" stroke="#333333" stroke-width="2" stroke-linecap="round" stroke-linejoin="round" opacity="1" fill="none"></path><path d="M1258.32 461.91H1177.84" stroke="#333333" stroke-width="2" stroke-linecap="round" stroke-linejoin="round" opacity="1" fill="none"></path></g><g><path d="M216.6 388.82C222.96 384.17 230.91 381.72 239.35 381.72 261.12 381.72 278.73 399.33 278.73 421.11 278.73 442.88 261.12 460.49 239.35 460.49 217.58 460.49 199.96 442.88 199.96 421.11 199.96 411.32 203.51 402.39 209.38 395.54" fill="#78c7e0" opacity="1" stroke-width="2" stroke="none"></path><path d="M216.6 388.82C222.96 384.17 230.91 381.72 239.35 381.72 261.12 381.72 278.73 399.33 278.73 421.11 278.73 442.88 261.12 460.49 239.35 460.49 217.58 460.49 199.96 442.88 199.96 421.11 199.96 411.32 203.51 402.39 209.38 395.54" stroke="#333333" stroke-width="2" stroke-linecap="round" stroke-linejoin="round" opacity="1" fill="none"></path><path d="M239.35 398.48V421.11" stroke="#333333" stroke-width="2" stroke-linecap="round" stroke-linejoin="round" opacity="1" fill="none"></path><path d="M261.85 421.11H239.35" stroke="#333333" stroke-width="2" stroke-linecap="round" stroke-linejoin="round" opacity="1" fill="none"></path></g><g><path d="M1271.52 800.5H1458.56" stroke="#333333" stroke-width="2" stroke-linecap="round" stroke-linejoin="round" opacity="1" fill="none"></path><path d="M1271.52 951.31V763.99" stroke="#333333" stroke-width="2" stroke-linecap="round" stroke-linejoin="round" opacity="1" fill="none"></path><path d="M1458.56 905.84V763.99" stroke="#333333" stroke-width="2" stroke-linecap="round" stroke-linejoin="round" opacity="1" fill="none"></path><path d="M1458.56 951.31V918.16" stroke="#333333" stroke-width="2" stroke-linecap="round" stroke-linejoin="round" opacity="1" fill="none"></path><path d="M1444.01 785.39H1286.21V898.29H1444.01V785.39Z" fill="#3d84a8" stroke="#333333" stroke-width="2" stroke-linecap="round" stroke-linejoin="round" opacity="1"></path><path d="M1406.52 800.5H1389.87V838.55H1406.52V800.5Z" fill="#78c7e0" stroke="#333333" stroke-width="2" stroke-linecap="round" stroke-linejoin="round" opacity="1"></path><path d="M1324.12 800.5H1307.47V838.55H1324.12V800.5Z" fill="#3d84a8" stroke="#333333" stroke-width="2" stroke-linecap="round" stroke-linejoin="round" opacity="1"></path><path d="M1307.47 883.32V850.86" stroke="#333333" stroke-width="2" stroke-linecap="round" stroke-linejoin="round" opacity="1" fill="none"></path><path d="M1323.84 883.32V850.86" stroke="#333333" stroke-width="2" stroke-linecap="round" stroke-linejoin="round" opacity="1" fill="none"></path><path d="M1340.35 883.32V800.5" stroke="#333333" stroke-width="2" stroke-linecap="round" stroke-linejoin="round" opacity="1" fill="none"></path><path d="M1357 883.32V800.5" stroke="#333333" stroke-width="2" stroke-linecap="round" stroke-linejoin="round" opacity="1" fill="none"></path><path d="M1373.36 883.32V800.5" stroke="#333333" stroke-width="2" stroke-linecap="round" stroke-linejoin="round" opacity="1" fill="none"></path><path d="M1422.89 826.66V800.5" stroke="#333333" stroke-width="2" stroke-linecap="round" stroke-linejoin="round" opacity="1" fill="none"></path><path d="M1422.89 851.28H1389.87V883.32H1422.89V851.28Z" fill="#78c7e0" stroke="#333333" stroke-width="2" stroke-linecap="round" stroke-linejoin="round" opacity="1"></path><path d="M1271.52 774.9H1458.56" stroke="#333333" stroke-width="2" stroke-linecap="round" stroke-linejoin="round" opacity="1" fill="none"></path><path d="M1444.01 785.39V764.13H1286.21V785.39H1307.47 1444.01Z" fill="#48466d" stroke="#333333" stroke-width="2" stroke-linecap="round" stroke-linejoin="round" opacity="1"></path><path d="M1307.47 777.84V785.39" stroke="#333333" stroke-width="2" stroke-linecap="round" stroke-linejoin="round" opacity="1" fill="none"></path><path d="M1323.84 777.84V785.39" stroke="#333333" stroke-width="2" stroke-linecap="round" stroke-linejoin="round" opacity="1" fill="none"></path><path d="M1340.35 777.84V785.39" stroke="#333333" stroke-width="2" stroke-linecap="round" stroke-linejoin="round" opacity="1" fill="none"></path><path d="M1357 777.84V785.39" stroke="#333333" stroke-width="2" stroke-linecap="round" stroke-linejoin="round" opacity="1" fill="none"></path><path d="M1373.36 777.84V785.39" stroke="#333333" stroke-width="2" stroke-linecap="round" stroke-linejoin="round" opacity="1" fill="none"></path><path d="M1389.87 777.84V785.39" stroke="#333333" stroke-width="2" stroke-linecap="round" stroke-linejoin="round" opacity="1" fill="none"></path><path d="M1406.52 777.84V785.39" stroke="#333333" stroke-width="2" stroke-linecap="round" stroke-linejoin="round" opacity="1" fill="none"></path><path d="M1422.89 777.84V785.39" stroke="#333333" stroke-width="2" stroke-linecap="round" stroke-linejoin="round" opacity="1" fill="none"></path></g><g><path d="M168.99 728.6H306.07V755.06H148.67V728.6H163.09" fill="#78c7e0" opacity="1" stroke-width="2" stroke="none"></path><path d="M168.99 728.6H306.07V755.06H148.67V728.6H163.09" stroke="#333333" stroke-width="2" stroke-linecap="round" stroke-linejoin="round" opacity="1" fill="none"></path><path d="M227.31 755.06V951.09" stroke="#333333" stroke-width="2" stroke-linecap="round" stroke-linejoin="round" opacity="1" fill="none"></path><path d="M272.52 789.35L306.07 951.09" stroke="#333333" stroke-width="2" stroke-linecap="round" stroke-linejoin="round" opacity="1" fill="none"></path><path d="M265.44 755.06L270.69 780.22" stroke="#333333" stroke-width="2" stroke-linecap="round" stroke-linejoin="round" opacity="1" fill="none"></path><path d="M189.3 755.06L148.67 951.09" stroke="#333333" stroke-width="2" stroke-linecap="round" stroke-linejoin="round" opacity="1" fill="none"></path></g><g><path d="M1233.16 779.74V720.9C1233.16 692.31 1210.54 669.16 1182.48 669.16H878.86C850.8 669.16 828.18 692.31 828.18 720.9V828.16H1233.38V789.71" fill="#abedd8" opacity="1" stroke-width="2" stroke="none"></path><path d="M1233.16 779.74V720.9C1233.16 692.31 1210.54 669.16 1182.48 669.16H878.86C850.8 669.16 828.18 692.31 828.18 720.9V828.16H1233.38V789.71" stroke="#333333" stroke-width="2" stroke-linecap="round" stroke-linejoin="round" opacity="1" fill="none"></path><path d="M1247.73 811.54H813.61V830.48H1247.73V811.54Z" fill="#abedd8" stroke="#333333" stroke-width="2" stroke-linecap="round" stroke-linejoin="round" opacity="1"></path><path d="M858.63 830.48L813.61 949.59" stroke="#333333" stroke-width="2" stroke-linecap="round" stroke-linejoin="round" opacity="1" fill="none"></path><path d="M1202.49 830.48L1247.73 949.59" stroke="#333333" stroke-width="2" stroke-linecap="round" stroke-linejoin="round" opacity="1" fill="none"></path><path d="M960.31 669.27V795.58" stroke="#333333" stroke-width="2" stroke-linecap="round" stroke-linejoin="round" opacity="1" fill="none"></path><path d="M1101.03 694.86V811.54" stroke="#333333" stroke-width="2" stroke-linecap="round" stroke-linejoin="round" opacity="1" fill="none"></path><path d="M1101.03 669.27V686.55" stroke="#333333" stroke-width="2" stroke-linecap="round" stroke-linejoin="round" opacity="1" fill="none"></path></g><g><path d="M165.01 711.36H173.22L214.29 708.85 246.58 711.36V729.95H165.01V711.36Z" fill="#48466d" stroke="#333333" stroke-width="2" stroke-linecap="round" stroke-linejoin="round" opacity="1"></path><path d="M172.08 692.65L210.87 689.91 248.52 692.65H253.66V711.36H172.08V692.65Z" fill="#3d84a8" stroke="#333333" stroke-width="2" stroke-linecap="round" stroke-linejoin="round" opacity="1"></path><path d="M178.47 674.05H168.43V692.65H250.12V674.05H189.19" fill="#48466d" opacity="1" stroke-width="2" stroke="none"></path><path d="M178.47 674.05H168.43V692.65H250.12V674.05H189.19" stroke="#333333" stroke-width="2" stroke-linecap="round" stroke-linejoin="round" opacity="1" fill="none"></path></g><g><path d="M1059.28 710.7L976.04 726.84 983.2 763.75 1066.44 747.61 1059.28 710.7Z" fill="#ffffff" stroke="#333333" stroke-width="2" stroke-linecap="round" stroke-linejoin="round" opacity="1"></path><path d="M1054.89 740.28L1127.67 800.81 1161.41 760.82 1054.89 740.28Z" fill="#ffffff" stroke="#333333" stroke-width="2" stroke-linecap="round" stroke-linejoin="round" opacity="1"></path><path d="M1082.63 763.34L1009.49 702.57C993.88 689.6 971.18 689.36 955.44 702.33L873.66 768.75 909.33 811.62 982.71 752.53 1047.2 806.1 1082.63 763.34Z" fill="#48466d" stroke="#333333" stroke-width="2" stroke-linecap="round" stroke-linejoin="round" opacity="1"></path><path d="M1100.88 642.64H1182.79C1213.78 642.64 1230.59 678.91 1210.53 702.45L1161.29 760.82 1042.64 738.12 1063.77 703.77 1066.05 674.71C1067.5 656.45 1082.63 642.64 1100.88 642.64Z" fill="#ffffff" stroke="#333333" stroke-width="2" stroke-linecap="round" stroke-linejoin="round" opacity="1"></path><path d="M1063.77 703.65L1141.6 718.43 1162.25 691.04" stroke="#333333" stroke-width="2" stroke-linecap="round" stroke-linejoin="round" opacity="1" fill="none"></path><path d="M1081.07 706.9V677.59" stroke="#333333" stroke-width="2" stroke-linecap="round" stroke-linejoin="round" opacity="1" fill="none"></path><path d="M1074.58 756.14H807.24C807.24 762.26 807.24 810.78 807.24 811.98 820.57 811.98 1099.92 811.98 1103.29 811.98 1112.65 811.98 1121.54 807.9 1127.79 801.05 1127.91 800.81 1128.15 800.69 1128.15 800.45L1074.58 756.14Z" fill="#48466d" stroke="#333333" stroke-width="2" stroke-linecap="round" stroke-linejoin="round" opacity="1"></path><path d="M982.71 752.65L974.78 745.69" stroke="#333333" stroke-width="2" stroke-linecap="round" stroke-linejoin="round" opacity="1" fill="none"></path><path d="M1112.77 617.42L1159.97 614.42 1170.66 614.9C1170.66 614.9 1178.83 627.03 1178.83 632.43 1178.83 636.28 1178.23 639.88 1177.15 643.24 1176.79 644.2 1176.67 645.05 1176.19 645.77 1171.02 658.38 1158.53 667.02 1144.12 667.02 1128.75 667.02 1115.66 656.94 1111.21 643 1110.13 639.64 1109.53 636.04 1109.53 632.19 1109.29 626.91 1110.61 621.87 1112.77 617.42Z" fill="#ffffff" stroke="#333333" stroke-width="2" stroke-linecap="round" stroke-linejoin="round" opacity="1"></path><path d="M1143.88 597.61C1157.69 597.61 1169.58 605.77 1175.23 617.42H1112.77C1118.3 605.65 1130.19 597.61 1143.88 597.61Z" fill="#48466d" stroke="#333333" stroke-width="2" stroke-linecap="round" stroke-linejoin="round" opacity="1"></path><path d="M1126.1 630.15V640.96" stroke="#333333" stroke-width="2" stroke-linecap="round" stroke-linejoin="round" opacity="1" fill="none"></path><path d="M1135.47 640.96C1135.47 643.48 1133.31 645.65 1130.79 645.65 1128.27 645.65 1126.1 643.48 1126.1 640.96" stroke="#333333" stroke-width="2" stroke-linecap="round" stroke-linejoin="round" opacity="1" fill="none"></path><path d="M1112.77 617.42C1112.77 603.73 1123.94 592.56 1137.63 592.56H1178.71V609.02 631.59 632.31C1170.18 632.31 1163.22 625.83 1162.25 617.3L1112.77 617.42Z" fill="#48466d" stroke="#333333" stroke-width="2" stroke-linecap="round" stroke-linejoin="round" opacity="1"></path></g><g><path d="M571.48 637.18H442.82L491.25 824.66H619.97L571.48 637.18Z" fill="#46cdcf" stroke="#333333" stroke-width="2" stroke-linecap="round" stroke-linejoin="round" opacity="1"></path><path d="M698.54 812.99H488.2V836.18H698.54V812.99Z" fill="#46cdcf" stroke="#333333" stroke-width="2" stroke-linecap="round" stroke-linejoin="round" opacity="1"></path><path d="M507.32 836.18L488.2 950.01" stroke="#333333" stroke-width="2" stroke-linecap="round" stroke-linejoin="round" opacity="1" fill="none"></path><path d="M619.97 836.18L639.09 950.01" stroke="#333333" stroke-width="2" stroke-linecap="round" stroke-linejoin="round" opacity="1" fill="none"></path><path d="M566.77 836.18L547.58 950.01" stroke="#333333" stroke-width="2" stroke-linecap="round" stroke-linejoin="round" opacity="1" fill="none"></path><path d="M679.35 836.18L698.54 950.01" stroke="#333333" stroke-width="2" stroke-linecap="round" stroke-linejoin="round" opacity="1" fill="none"></path></g><g><path d="M460.88 658.24H584.08L586.44 663.1V949.9H458V663.1L460.88 658.24Z" fill="#48466d" stroke="#333333" stroke-width="2" stroke-linecap="round" stroke-linejoin="round" opacity="1"></path><path d="M605.99 582.67V534.66C605.99 506.58 583.16 483.49 554.82 483.49H491.06C462.85 483.49 439.89 506.32 439.89 534.66V628.33H458V663.23H586.57V628.4H605.99V628.4H670.67V582.67H605.99Z" fill="#ffffff" stroke="#333333" stroke-width="2" stroke-linecap="round" stroke-linejoin="round" opacity="1"></path><path d="M570.3 445.31C572.8 450.43 574.24 456.33 574.24 462.5 574.24 466.83 573.45 470.89 572.27 474.83 567.15 490.84 552.2 502.12 534.49 502.12 517.95 502.12 503.79 492.15 497.88 477.72V452.79L514.94 435.21 554.56 431.14 570.3 445.31Z" fill="#ffffff" stroke="#333333" stroke-width="2" stroke-linecap="round" stroke-linejoin="round" opacity="1"></path><path d="M554.95 464.73V472.21" stroke="#333333" stroke-width="2" stroke-linecap="round" stroke-linejoin="round" opacity="1" fill="none"></path><path d="M544.33 472.21C544.33 475.09 546.69 477.45 549.7 477.45 552.72 477.45 554.95 475.09 554.95 472.21" stroke="#333333" stroke-width="2" stroke-linecap="round" stroke-linejoin="round" opacity="1" fill="none"></path><path d="M534.49 422.61C518.74 422.61 504.97 431.93 498.67 445.18 496.04 450.3 494.73 456.2 494.73 462.37 494.73 462.76 494.73 463.15 494.73 463.55V471.68C483.32 471.68 474 481 474 492.41 474 503.82 483.32 513.14 494.73 513.14 506.15 513.14 515.46 503.96 515.46 492.41V460.4 456.85 445.44H537.5C543.28 445.44 548 440.72 548 435.08 548 440.72 552.72 445.44 558.36 445.44H570.43C564.01 431.93 550.49 422.61 534.49 422.61Z" fill="#48466d" stroke="#333333" stroke-width="2" stroke-linecap="round" stroke-linejoin="round" opacity="1"></path><path d="M458 628.46H570.7V582.67H479.25" stroke="#333333" stroke-width="2" stroke-linecap="round" stroke-linejoin="round" opacity="1" fill="none"></path><path d="M511.53 550.4C511.53 568.37 497.09 582.67 479.25 582.67" stroke="#333333" stroke-width="2" stroke-linecap="round" stroke-linejoin="round" opacity="1" fill="none"></path><path d="M586.44 550.4V628.72" stroke="#333333" stroke-width="2" stroke-linecap="round" stroke-linejoin="round" opacity="1" fill="none"></path><path d="M546.95 941.76V764.25" stroke="#333333" stroke-width="2" stroke-linecap="round" stroke-linejoin="round" opacity="1" fill="none"></path></g><g><path d="M424.06 698.3C425.25 700.91 425.96 703.76 425.96 706.69 425.96 717.69 417.1 726.64 406.02 726.64 395.02 726.64 386.07 717.69 386.07 706.69 386.07 695.69 394.94 686.75 406.02 686.75 412.19 686.75 417.81 689.6 421.45 694.11" fill="#abedd8" opacity="1" stroke-width="2" stroke="none"></path><path d="M424.06 698.3C425.25 700.91 425.96 703.76 425.96 706.69 425.96 717.69 417.1 726.64 406.02 726.64 395.02 726.64 386.07 717.69 386.07 706.69 386.07 695.69 394.94 686.75 406.02 686.75 412.19 686.75 417.81 689.6 421.45 694.11" stroke="#333333" stroke-width="2" stroke-linecap="round" stroke-linejoin="round" opacity="1" fill="none"></path></g><g><path d="M847.24 679.77H772.21V726.64H847.24V679.77Z" fill="#46cdcf" stroke="#333333" stroke-width="2" stroke-linecap="round" stroke-linejoin="round" opacity="1"></path><path d="M784.71 663.46H768.62V679.77H850.94V663.46H790.48" fill="#3d84a8" opacity="1" stroke-width="2" stroke="none"></path><path d="M784.71 663.46H768.62V679.77H850.94V663.46H790.48" stroke="#333333" stroke-width="2" stroke-linecap="round" stroke-linejoin="round" opacity="1" fill="none"></path><path d="M795.59 689.89H823.75" stroke="#333333" stroke-width="2" stroke-linecap="round" stroke-linejoin="round" opacity="1" fill="none"></path></g><g><path d="M710.33 726.98C702.63 726.98 696.39 720.74 696.39 713.03V693.22H724.03V713.03C724.28 721.11 718.04 726.98 710.33 726.98Z" fill="#78c7e0" stroke="#333333" stroke-width="2" stroke-linecap="round" stroke-linejoin="round" opacity="1"></path><path d="M696.39 700.07H707.52" stroke="#333333" stroke-width="2" stroke-linecap="round" stroke-linejoin="round" opacity="1" fill="none"></path></g><g><path d="M879.2 726.88H357.9V949.95H879.2V726.88Z" fill="#3d84a8" stroke="#333333" stroke-width="2" stroke-linecap="round" stroke-linejoin="round" opacity="1"></path><path d="M804.61 794.37H879.58" stroke="#333333" stroke-width="2" stroke-linecap="round" stroke-linejoin="round" opacity="1" fill="none"></path><path d="M357.9 794.37H781.15" stroke="#333333" stroke-width="2" stroke-linecap="round" stroke-linejoin="round" opacity="1" fill="none"></path></g><g><path d="M694.96 523.04C715.54 523.04 732.22 506.36 732.22 485.78 732.22 465.21 715.54 448.52 694.96 448.52 674.39 448.52 657.7 465.21 657.7 485.78 657.7 506.36 674.39 523.04 694.96 523.04Z" fill="#abedd8" stroke="#333333" stroke-width="2" stroke-linecap="round" stroke-linejoin="round" opacity="1"></path><path d="M694.96 523.04V535.59C694.96 546.34 686.26 555.05 675.51 555.05" stroke="#333333" stroke-width="2" stroke-linecap="round" stroke-linejoin="round" opacity="1" fill="none"></path><path d="M709.16 467.9H680.84V503.67H709.16V467.9Z" fill="#78c7e0" stroke="#333333" stroke-width="2" stroke-linecap="round" stroke-linejoin="round" opacity="1"></path><path d="M689.16 478.41H700.77" stroke="#333333" stroke-width="2" stroke-linecap="round" stroke-linejoin="round" opacity="1" fill="none"></path><path d="M689.16 485.78H700.77" stroke="#333333" stroke-width="2" stroke-linecap="round" stroke-linejoin="round" opacity="1" fill="none"></path><path d="M689.16 493.23H700.77" stroke="#333333" stroke-width="2" stroke-linecap="round" stroke-linejoin="round" opacity="1" fill="none"></path></g></svg>