<?xml version="1.0" standalone="no"?>
<!DOCTYPE svg PUBLIC "-//W3C//DTD SVG 20010904//EN"
 "http://www.w3.org/TR/2001/REC-SVG-20010904/DTD/svg10.dtd">
<svg version="1.0" xmlns="http://www.w3.org/2000/svg"
 width="180.000000pt" height="180.000000pt" viewBox="0 0 200.000000 200.000000"
 preserveAspectRatio="xMidYMid meet">

<g transform="translate(0.000000,200.000000) scale(0.100000,-0.100000)"
fill="#fff" stroke="none">
<path d="M880 1015 c0 -50 4 -85 10 -85 6 0 10 35 10 85 0 50 -4 85 -10 85 -6
0 -10 -35 -10 -85z"/>
<path d="M1000 1015 c0 -50 4 -85 10 -85 6 0 10 25 10 56 0 73 23 69 31 -7 l6
-54 -1 65 c-1 60 -3 65 -22 63 -17 -2 -20 2 -16 22 2 15 0 25 -7 25 -7 0 -11
-29 -11 -85z"/>
<path d="M1170 1090 c0 -5 5 -10 10 -10 6 0 10 5 10 10 0 6 -4 10 -10 10 -5 0
-10 -4 -10 -10z"/>
<path d="M600 1010 c0 -81 16 -112 22 -42 4 52 31 50 39 -3 4 -27 6 -13 6 45
0 52 -2 72 -6 50 -9 -50 -41 -55 -41 -6 0 20 -4 36 -10 36 -6 0 -10 -33 -10
-80z"/>
<path d="M938 1073 c-2 -10 -2 -46 0 -80 3 -57 6 -63 25 -63 20 1 20 2 4 11
-14 8 -17 22 -15 74 2 62 -5 94 -14 58z"/>
<path d="M1100 1010 l0 -80 28 1 c16 1 20 3 10 6 -15 4 -18 16 -18 79 0 43 -4
74 -10 74 -6 0 -10 -33 -10 -80z"/>
<path d="M710 1041 c-11 -22 -13 -55 -4 -88 7 -27 48 -32 58 -8 3 8 1 15 -3
15 -5 0 -11 -5 -13 -12 -6 -17 -28 0 -28 23 0 14 7 19 25 19 19 0 25 5 25 23
0 44 -41 63 -60 28z m40 -21 c0 -11 -7 -20 -15 -20 -8 0 -15 9 -15 20 0 11 7
20 15 20 8 0 15 -9 15 -20z"/>
<path d="M803 1053 c-7 -2 -13 -12 -13 -20 0 -13 3 -13 15 -3 13 10 18 11 28
1 9 -10 6 -17 -15 -33 -17 -12 -28 -29 -28 -44 0 -21 4 -24 30 -22 l31 2 -3
61 c-3 60 -12 72 -45 58z m35 -85 c-4 -27 -28 -36 -28 -10 0 20 8 32 22 32 5
0 8 -10 6 -22z"/>
<path d="M1238 1053 c-15 -4 -18 -16 -18 -64 0 -74 18 -78 22 -4 2 30 8 55 13
55 6 0 11 -25 13 -55 4 -70 22 -72 22 -2 0 47 -13 79 -29 76 -4 -1 -14 -3 -23
-6z"/>
<path d="M1332 1051 c-9 -5 -12 -25 -10 -62 2 -43 7 -55 22 -57 20 -4 44 14
32 25 -4 4 -11 1 -15 -6 -11 -18 -31 -5 -31 20 0 14 7 19 25 19 19 0 25 5 25
23 0 21 -16 47 -29 47 -4 0 -12 -4 -19 -9z m28 -31 c0 -11 -7 -20 -15 -20 -15
0 -21 21 -8 33 12 13 23 7 23 -13z"/>
<path d="M1170 990 c0 -33 4 -60 10 -60 6 0 10 27 10 60 0 33 -4 60 -10 60 -6
0 -10 -27 -10 -60z"/>
</g>
</svg>
